<?xml version="1.0" encoding="UTF-8"?>
<svg width="18px" height="18px" viewBox="0 0 18 18" version="1.1" xmlns="http://www.w3.org/2000/svg" xmlns:xlink="http://www.w3.org/1999/xlink">
    <title>Icons/lsq_direction</title>
    <g id="Symbols" stroke="none" stroke-width="1" fill="none" fill-rule="evenodd">
        <g id="lsq_direction" transform="translate(-3.000000, -3.000000)" fill="#000000" fill-rule="nonzero">
            <path d="M10.7085578,3.52919861 L3.52599981,10.729357 C2.82466673,11.4324883 2.82466673,12.5682823 3.52599981,13.2714137 L10.7085955,20.4716099 C11.4099131,21.1747304 12.5526022,21.1764026 13.254929,20.4740758 L20.4710609,13.2747432 C21.1763262,12.5712771 21.1763262,11.4294935 20.4709818,10.7259484 L13.2541045,3.52587137 C12.5500326,2.82360016 11.4112459,2.82471335 10.7085578,3.52919861 Z M11.9831947,5.08203501 L18.9163449,12.0001849 L11.9831947,18.9173349 L5.08204512,11.9991849 L11.9831947,5.08203501 Z M9.59974303,10.4003507 C9.59974303,10.4003507 9.95735078,10.4003507 10.3997604,10.4003507 L13.5998297,10.4003507 L13.5998297,8.80031598 L15.9998817,11.200368 L13.5998297,13.60042 L13.5998297,12.0003853 L11.1997777,12.0003853 L11.1997777,15.2004547 L9.59974303,15.2004547 L9.59974303,10.4003507 Z" id="Path"></path>
        </g>
    </g>
</svg>